<svg width="19" height="18" viewBox="0 0 19 18" fill="none" xmlns="http://www.w3.org/2000/svg">
<path d="M15.9726 7.33175C15.7104 7.05772 15.4392 6.77535 15.3369 6.52706C15.2424 6.29963 15.2368 5.92268 15.2312 5.55754C15.2208 4.87874 15.2097 4.10952 14.6748 3.57468C14.14 3.03985 13.3708 3.02872 12.692 3.01829C12.3268 3.01272 11.9499 3.00716 11.7225 2.91257C11.4749 2.81033 11.1918 2.53909 10.9178 2.27689C10.4379 1.81577 9.8926 1.29346 9.1665 1.29346C8.44041 1.29346 7.89583 1.81577 7.41525 2.27689C7.14122 2.53909 6.85885 2.81033 6.61056 2.91257C6.38452 3.00716 6.00617 3.01272 5.64104 3.01829C4.96223 3.02872 4.19301 3.03985 3.65818 3.57468C3.12334 4.10952 3.11569 4.87874 3.10178 5.55754C3.09622 5.92268 3.09065 6.29963 2.99607 6.52706C2.89383 6.77466 2.62259 7.05772 2.36038 7.33175C1.89927 7.81164 1.37695 8.35691 1.37695 9.08301C1.37695 9.8091 1.89927 10.3537 2.36038 10.8343C2.62259 11.1083 2.89383 11.3907 2.99607 11.639C3.09065 11.8664 3.09622 12.2433 3.10178 12.6085C3.11221 13.2873 3.12334 14.0565 3.65818 14.5913C4.19301 15.1262 4.96223 15.1373 5.64104 15.1477C6.00617 15.1533 6.38313 15.1589 6.61056 15.2534C6.85815 15.3557 7.14122 15.6269 7.41525 15.8891C7.89514 16.3502 8.44041 16.8726 9.1665 16.8726C9.8926 16.8726 10.4372 16.3502 10.9178 15.8891C11.1918 15.6269 11.4742 15.3557 11.7225 15.2534C11.9499 15.1589 12.3268 15.1533 12.692 15.1477C13.3708 15.1373 14.14 15.1262 14.6748 14.5913C15.2097 14.0565 15.2208 13.2873 15.2312 12.6085C15.2368 12.2433 15.2424 11.8664 15.3369 11.639C15.4392 11.3914 15.7104 11.1083 15.9726 10.8343C16.4337 10.3544 16.9561 9.8091 16.9561 9.08301C16.9561 8.35691 16.4337 7.81234 15.9726 7.33175ZM12.3421 7.80747L8.44736 11.7022C8.39569 11.754 8.33432 11.795 8.26678 11.823C8.19923 11.851 8.12683 11.8654 8.05371 11.8654C7.98059 11.8654 7.90819 11.851 7.84064 11.823C7.7731 11.795 7.71173 11.754 7.66006 11.7022L5.99087 10.0331C5.93918 9.98136 5.89817 9.91999 5.87019 9.85245C5.84222 9.7849 5.82782 9.71251 5.82782 9.6394C5.82782 9.5663 5.84222 9.49391 5.87019 9.42636C5.89817 9.35882 5.93918 9.29745 5.99087 9.24575C6.09527 9.14135 6.23687 9.0827 6.38452 9.0827C6.45763 9.0827 6.53002 9.0971 6.59756 9.12508C6.66511 9.15305 6.72648 9.19406 6.77817 9.24575L8.05371 10.522L11.5548 7.02017C11.6065 6.96847 11.6679 6.92747 11.7354 6.89949C11.803 6.87151 11.8754 6.85711 11.9485 6.85711C12.0216 6.85711 12.094 6.87151 12.1615 6.89949C12.2291 6.92747 12.2904 6.96847 12.3421 7.02017C12.3938 7.07186 12.4348 7.13323 12.4628 7.20078C12.4908 7.26832 12.5052 7.34071 12.5052 7.41382C12.5052 7.48693 12.4908 7.55932 12.4628 7.62686C12.4348 7.6944 12.3938 7.75577 12.3421 7.80747Z" fill="#229ED9"/>
</svg>
